<?xml version="1.0" encoding="UTF-8" standalone="no"?>
<!-- Created with Inkscape (http://www.inkscape.org/) -->

<svg
   xmlns:dc="http://purl.org/dc/elements/1.1/"
   xmlns:cc="http://creativecommons.org/ns#"
   xmlns:rdf="http://www.w3.org/1999/02/22-rdf-syntax-ns#"
   xmlns:svg="http://www.w3.org/2000/svg"
   xmlns="http://www.w3.org/2000/svg"
   xmlns:sodipodi="http://sodipodi.sourceforge.net/DTD/sodipodi-0.dtd"
   xmlns:inkscape="http://www.inkscape.org/namespaces/inkscape"
   id="svg6600"
   version="1.1"
   inkscape:version="0.91 r13725"
   xml:space="preserve"
   width="430.36301"
   height="395.52774"
   viewBox="0 0 430.363 395.52774"
   sodipodi:docname="englishONfinal-notext-loading-white.svg"><metadata
     id="metadata6606"><rdf:RDF><cc:Work
         rdf:about=""><dc:format>image/svg+xml</dc:format><dc:type
           rdf:resource="http://purl.org/dc/dcmitype/StillImage" /><dc:title></dc:title></cc:Work></rdf:RDF></metadata><defs
     id="defs6604"><linearGradient
       x1="421.85999"
       y1="367.20001"
       x2="421.85999"
       y2="683.62"
       gradientUnits="userSpaceOnUse"
       spreadMethod="pad"
       id="linearGradient6624"><stop
         style="stop-opacity:1;stop-color:#f89406"
         offset="0"
         id="stop6626" /><stop
         style="stop-opacity:1;stop-color:#ff9500"
         offset="1"
         id="stop6628" /></linearGradient><clipPath
       clipPathUnits="userSpaceOnUse"
       id="clipPath6640"><path
         d="m 0,0 107.8787,0 0,50.6392 L 0,50.6392 0,0 Z"
         id="path6642"
         inkscape:connector-curvature="0"
         style="clip-rule:evenodd" /></clipPath><linearGradient
       x1="57.18"
       y1="151.10001"
       x2="57.18"
       y2="15.74"
       gradientUnits="userSpaceOnUse"
       spreadMethod="pad"
       id="linearGradient6644"><stop
         style="stop-opacity:1;stop-color:#ffffff"
         offset="0"
         id="stop6646" /><stop
         style="stop-opacity:0;stop-color:#ffffff"
         offset="1"
         id="stop6648" /></linearGradient><mask
       maskUnits="userSpaceOnUse"
       x="0"
       y="0"
       width="1"
       height="1"
       id="mask6650"><g
         id="g6652"><g
           id="g6654"><g
             transform="translate(338.0366,367.2014)"
             id="g6656"><g
               id="g6658"><g
                 clip-path="url(#clipPath6640)"
                 id="g6660"><path
                   d="m 0,0 107.8787,0 0,50.6392 L 0,50.6392 0,0 Z"
                   style="fill:url(#linearGradient6644);fill-rule:evenodd;stroke:none"
                   id="path6662"
                   inkscape:connector-curvature="0" /></g></g></g></g></g></mask></defs><sodipodi:namedview
     pagecolor="#56d1ff"
     bordercolor="#666666"
     borderopacity="1"
     objecttolerance="10"
     gridtolerance="10"
     guidetolerance="10"
     inkscape:pageopacity="0"
     inkscape:pageshadow="2"
     inkscape:window-width="1920"
     inkscape:window-height="1017"
     id="namedview6602"
     showgrid="false"
     fit-margin-top="0"
     fit-margin-left="0"
     fit-margin-right="0"
     fit-margin-bottom="0"
     inkscape:zoom="0.63429563"
     inkscape:cx="-132.90626"
     inkscape:cy="16.291479"
     inkscape:window-x="-4"
     inkscape:window-y="-4"
     inkscape:window-maximized="1"
     inkscape:current-layer="g6608"
     showguides="true"
     inkscape:guide-bbox="true"
     inkscape:snap-object-midpoints="true"><sodipodi:guide
       position="260.86099,225.18769"
       orientation="0,1"
       id="guide8638" /><sodipodi:guide
       position="241.90955,283.1568"
       orientation="1,0"
       id="guide8640" /><sodipodi:guide
       position="126.23592,225.18769"
       orientation="1,0"
       id="guide8672" /><sodipodi:guide
       position="351.15902,225.18769"
       orientation="1,0"
       id="guide8674" /></sodipodi:namedview><g
     id="g6608"
     inkscape:groupmode="layer"
     inkscape:label="englishONfinal-orange"
     transform="matrix(1.25,0,0,-1.25,-312.1445,854.52887)"><g
       id="g6614"><g
         id="g8680"><path
           id="path6630"
           transform="matrix(0.8,0,0,-0.8,249.7156,683.6231)"
           d="M 231.30273 0 C 229.58498 5.1906179e-018 227.87256 0.0224375 226.16406 0.0546875 C 100.79331 2.3921875 -1.0996285e-016 90.010672 0 197.76367 C 0 306.88055 103.36092 395.35419 230.93555 395.52344 C 231.05717 395.52594 231.18048 395.52734 231.30273 395.52734 C 239.00561 395.52734 245.25 390.18706 245.25 383.60156 C 245.25 377.01631 239.00561 371.67773 231.30273 371.67773 C 204.98173 371.67773 183.05587 355.5865 178.25 334.28125 C 195.14062 338.26462 212.93111 340.39258 231.30273 340.39258 C 249.67448 340.39258 267.46497 338.26462 284.35547 334.28125 C 368.53922 314.42775 430.36328 248.48406 430.36328 170.19531 C 430.36328 76.198813 341.24136 1.0042967e-016 231.30273 0 z M 126.23633 138.05664 C 147.08965 138.05664 163.99414 152.51067 163.99414 170.33984 C 163.99414 188.16909 147.08965 202.62305 126.23633 202.62305 C 105.38329 202.62305 88.478516 188.16909 88.478516 170.33984 C 88.478516 152.51067 105.38329 138.05664 126.23633 138.05664 z M 241.91016 138.05664 C 262.76348 138.05664 279.66797 152.51067 279.66797 170.33984 C 279.66797 188.16909 262.76348 202.62305 241.91016 202.62305 C 221.05712 202.62305 204.15234 188.16909 204.15234 170.33984 C 204.15234 152.51067 221.05712 138.05664 241.91016 138.05664 z M 351.1582 138.05664 C 372.01153 138.05664 388.91797 152.51067 388.91797 170.33984 C 388.91797 188.16909 372.01153 202.62305 351.1582 202.62305 C 330.30517 202.62305 313.40039 188.16909 313.40039 170.33984 C 313.40039 152.51067 330.30517 138.05664 351.1582 138.05664 z "
           style="fill:#ffffff;fill-rule:evenodd;stroke:none" /><g
           id="g6632"><g
             id="g6634" /><g
             mask="url(#mask6650)"
             id="g6664"><path
               inkscape:connector-curvature="0"
               id="path6666"
               style="fill:#000000;fill-opacity:1;fill-rule:evenodd;stroke:none"
               d="m 379.5721,417.8407 c 4.4376,0 8.7168,-0.5749 12.7429,-1.6433 l 0.002,-0.009 c 3.8489,-17.0393 21.3874,-29.908 42.4403,-29.908 6.1626,0 11.1578,-4.2713 11.1578,-9.5395 0,-5.2687 -4.9952,-9.54 -11.1578,-9.54 -0.0978,0 -0.1958,0.001 -0.2931,0.003 -35.0623,0.0462 -67.8381,8.4314 -95.7605,22.9584 l -0.3881,0.2058 -0.2792,0.1497 c 4.8597,15.7266 21.6128,27.3223 41.5355,27.3223" /></g></g></g></g></g></svg>