<?xml version="1.0" encoding="UTF-8" standalone="no"?>
<!-- Created with Inkscape (http://www.inkscape.org/) -->

<svg
   xmlns:dc="http://purl.org/dc/elements/1.1/"
   xmlns:cc="http://creativecommons.org/ns#"
   xmlns:rdf="http://www.w3.org/1999/02/22-rdf-syntax-ns#"
   xmlns:svg="http://www.w3.org/2000/svg"
   xmlns="http://www.w3.org/2000/svg"
   xmlns:sodipodi="http://sodipodi.sourceforge.net/DTD/sodipodi-0.dtd"
   xmlns:inkscape="http://www.inkscape.org/namespaces/inkscape"
   id="svg6600"
   version="1.1"
   inkscape:version="0.91 r13725"
   xml:space="preserve"
   width="430.36301"
   height="395.52774"
   viewBox="0 0 430.363 395.52774"
   sodipodi:docname="button-off.svg"><metadata
     id="metadata6606"><rdf:RDF><cc:Work
         rdf:about=""><dc:format>image/svg+xml</dc:format><dc:type
           rdf:resource="http://purl.org/dc/dcmitype/StillImage" /><dc:title></dc:title></cc:Work></rdf:RDF></metadata><defs
     id="defs6604"><clipPath
       clipPathUnits="userSpaceOnUse"
       id="clipPath6620"><path
         d="m 594.006,547.4665 c 0,-62.631 -49.4592,-115.3854 -116.8062,-131.2682 -13.5124,-3.1867 -27.7449,-4.8889 -42.4423,-4.8889 -14.6973,0 -28.9298,1.7022 -42.4423,4.8889 3.8447,-17.0442 21.3855,-29.9174 42.4423,-29.9174 6.1623,0 11.1581,-4.2716 11.1581,-9.5398 0,-5.2684 -4.9958,-9.54 -11.1581,-9.54 -0.0978,0 -0.1958,10e-4 -0.2931,0.003 -102.0597,0.1354 -184.7488,70.9143 -184.7488,158.2078 0,86.2024 80.6343,156.2967 180.9309,158.1667 1.3668,0.0258 2.7368,0.0445 4.111,0.0445 87.9509,0 159.2485,-60.9596 159.2485,-136.1568 z M 443.4766,501.1277 c 29.9325,0 54.197,20.747 54.197,46.3388 0,25.5917 -24.2645,46.3385 -54.197,46.3385 -29.9321,0 -54.1973,-20.7468 -54.1973,-46.3385 0,-25.5918 24.2652,-46.3388 54.1973,-46.3388"
         id="path6622"
         inkscape:connector-curvature="0"
         style="clip-rule:evenodd" /></clipPath><linearGradient
       x1="421.85999"
       y1="367.20001"
       x2="421.85999"
       y2="683.62"
       gradientUnits="userSpaceOnUse"
       spreadMethod="pad"
       id="linearGradient6624"><stop
         style="stop-opacity:1;stop-color:#36bdb7"
         offset="0"
         id="stop6626" /><stop
         style="stop-opacity:1;stop-color:#36d7b7"
         offset="1"
         id="stop6628" /></linearGradient><clipPath
       clipPathUnits="userSpaceOnUse"
       id="clipPath6640"><path
         d="m 0,0 107.8787,0 0,50.6392 L 0,50.6392 0,0 Z"
         id="path6642"
         inkscape:connector-curvature="0"
         style="clip-rule:evenodd" /></clipPath><linearGradient
       x1="57.18"
       y1="151.10001"
       x2="57.18"
       y2="15.74"
       gradientUnits="userSpaceOnUse"
       spreadMethod="pad"
       id="linearGradient6644"><stop
         style="stop-opacity:1;stop-color:#ffffff"
         offset="0"
         id="stop6646" /><stop
         style="stop-opacity:0;stop-color:#ffffff"
         offset="1"
         id="stop6648" /></linearGradient><mask
       maskUnits="userSpaceOnUse"
       x="0"
       y="0"
       width="1"
       height="1"
       id="mask6650"><g
         id="g6652"><g
           id="g6654"><g
             transform="translate(338.0366,367.2014)"
             id="g6656"><g
               id="g6658"><g
                 clip-path="url(#clipPath6640)"
                 id="g6660"><path
                   d="m 0,0 107.8787,0 0,50.6392 L 0,50.6392 0,0 Z"
                   style="fill:url(#linearGradient6644);fill-rule:evenodd;stroke:none"
                   id="path6662"
                   inkscape:connector-curvature="0" /></g></g></g></g></g></mask><linearGradient
       id="linearGradient4188"
       spreadMethod="pad"
       gradientTransform="matrix(0,316.26819,316.26819,0,223.87254,74.37381)"
       gradientUnits="userSpaceOnUse"
       y2="0"
       x2="1"
       y1="0"
       x1="0"><stop
         id="stop4190"
         offset="0"
         style="stop-opacity:1;stop-color:#36bdb7" /><stop
         id="stop4192"
         offset="0.01041048"
         style="stop-opacity:1;stop-color:#36bdb7" /><stop
         id="stop4194"
         offset="1"
         style="stop-opacity:1;stop-color:#36d7b7" /></linearGradient><clipPath
       id="clipPath4202"
       clipPathUnits="userSpaceOnUse"><path
         inkscape:connector-curvature="0"
         id="path4204"
         d="m 0,421.168 692,0 L 692,0 0,0 0,421.168 Z" /></clipPath><clipPath
       id="clipPath4210"
       clipPathUnits="userSpaceOnUse"><path
         inkscape:connector-curvature="0"
         id="path4212"
         d="m 140.086,125.001 107.826,0 0,-50.6142 -107.826,0 0,50.6142 z" /></clipPath><clipPath
       id="clipPath4214"
       clipPathUnits="userSpaceOnUse"><path
         inkscape:connector-curvature="0"
         id="path4216"
         d="m 140.086,125.001 107.826,0 0,-50.6153 -107.826,0 0,50.6153 z" /></clipPath><linearGradient
       id="linearGradient4222"
       spreadMethod="pad"
       gradientTransform="matrix(0,-135.3,-135.3,0,193.99902,225.41602)"
       gradientUnits="userSpaceOnUse"
       y2="0"
       x2="1"
       y1="0"
       x1="0"><stop
         id="stop4224"
         offset="0"
         style="stop-opacity:1;stop-color:#ffffff" /><stop
         id="stop4226"
         offset="1"
         style="stop-opacity:1;stop-color:#000000" /></linearGradient><mask
       id="mask4228"
       height="1"
       width="1"
       y="0"
       x="0"
       maskUnits="userSpaceOnUse"><g
         id="g4230"><g
           id="g4232"
           clip-path="url(#clipPath4210)"><path
             inkscape:connector-curvature="0"
             id="path4234"
             style="fill:#000000;fill-opacity:1;fill-rule:nonzero;stroke:none"
             d="m 140.086,125.001 107.826,0 0,-50.615 -107.826,0 0,50.615 z" /><g
             id="g4236"><g
               id="g4238" /><g
               id="g4240"><g
                 id="g4242"
                 clip-path="url(#clipPath4214)"><g
                   id="g4244"><g
                     id="g4246"><g
                       id="g4248"><g
                         id="g4250"><path
                           inkscape:connector-curvature="0"
                           id="path4252"
                           style="fill:url(#linearGradient4222);stroke:none"
                           d="m 140.086,74.386 107.826,0 0,50.615 -107.826,0 0,-50.615 z" /></g></g></g></g></g></g></g></g></g></mask><clipPath
       id="clipPath4258"
       clipPathUnits="userSpaceOnUse"><path
         inkscape:connector-curvature="0"
         id="path4260"
         d="m 140.086,125.001 107.826,0 0,-50.6142 -107.826,0 0,50.6142 z" /></clipPath></defs><sodipodi:namedview
     pagecolor="#ffffff"
     bordercolor="#666666"
     borderopacity="1"
     objecttolerance="10"
     gridtolerance="10"
     guidetolerance="10"
     inkscape:pageopacity="0"
     inkscape:pageshadow="2"
     inkscape:window-width="1920"
     inkscape:window-height="1017"
     id="namedview6602"
     showgrid="false"
     fit-margin-top="0"
     fit-margin-left="0"
     fit-margin-right="0"
     fit-margin-bottom="0"
     inkscape:zoom="0.22425737"
     inkscape:cx="-1504.9704"
     inkscape:cy="67.180023"
     inkscape:window-x="-4"
     inkscape:window-y="-4"
     inkscape:window-maximized="1"
     inkscape:current-layer="g6608" /><g
     id="g6608"
     inkscape:groupmode="layer"
     inkscape:label="englishONfinal-orange"
     transform="matrix(1.25,0,0,-1.25,-312.1445,854.52887)"><g
       id="g6614"><g
         id="g6616"><g
           id="g6618"
           clip-path="url(#clipPath6620)"><path
             d="m 594.006,547.4665 c 0,-62.631 -49.4592,-115.3854 -116.8062,-131.2682 -13.5124,-3.1867 -27.7449,-4.8889 -42.4423,-4.8889 -14.6973,0 -28.9298,1.7022 -42.4423,4.8889 3.8447,-17.0442 21.3855,-29.9174 42.4423,-29.9174 6.1623,0 11.1581,-4.2716 11.1581,-9.5398 0,-5.2684 -4.9958,-9.54 -11.1581,-9.54 -0.0978,0 -0.1958,10e-4 -0.2931,0.003 -102.0597,0.1354 -184.7488,70.9143 -184.7488,158.2078 0,86.2024 80.6343,156.2967 180.9309,158.1667 1.3668,0.0258 2.7368,0.0445 4.111,0.0445 87.9509,0 159.2485,-60.9596 159.2485,-136.1568 z M 443.4766,501.1277 c 29.9325,0 54.197,20.747 54.197,46.3388 0,25.5917 -24.2645,46.3385 -54.197,46.3385 -29.9321,0 -54.1973,-20.7468 -54.1973,-46.3385 0,-25.5918 24.2652,-46.3388 54.1973,-46.3388"
             style="fill:url(#linearGradient6624);fill-rule:evenodd;stroke:none"
             id="path6630"
             inkscape:connector-curvature="0" /></g></g><g
         id="g6632"><g
           id="g6634" /><g
           id="g6664"
           mask="url(#mask6650)"><path
             d="m 379.5721,417.8407 c 4.4376,0 8.7168,-0.5749 12.7429,-1.6433 l 0.002,-0.009 c 3.8489,-17.0393 21.3874,-29.908 42.4403,-29.908 6.1626,0 11.1578,-4.2713 11.1578,-9.5395 0,-5.2687 -4.9952,-9.54 -11.1578,-9.54 -0.0978,0 -0.1958,0.001 -0.2931,0.003 -35.0623,0.0462 -67.8381,8.4314 -95.7605,22.9584 l -0.3881,0.2058 -0.2792,0.1497 c 4.8597,15.7266 21.6128,27.3223 41.5355,27.3223"
             style="fill:#000000;fill-opacity:1;fill-rule:evenodd;stroke:none"
             id="path6666"
             inkscape:connector-curvature="0" /></g></g></g></g></svg>