<?xml version="1.0" encoding="UTF-8" standalone="no"?>
<!-- Created with Inkscape (http://www.inkscape.org/) -->

<svg
   xmlns:dc="http://purl.org/dc/elements/1.1/"
   xmlns:cc="http://creativecommons.org/ns#"
   xmlns:rdf="http://www.w3.org/1999/02/22-rdf-syntax-ns#"
   xmlns:svg="http://www.w3.org/2000/svg"
   xmlns="http://www.w3.org/2000/svg"
   xmlns:xlink="http://www.w3.org/1999/xlink"
   xmlns:sodipodi="http://sodipodi.sourceforge.net/DTD/sodipodi-0.dtd"
   xmlns:inkscape="http://www.inkscape.org/namespaces/inkscape"
   id="svg4136"
   version="1.1"
   inkscape:version="0.91 r13725"
   xml:space="preserve"
   width="630.30011"
   height="579.28064"
   viewBox="0 0 630.30011 579.28064"
   sodipodi:docname="button-on-en.svg"><metadata
     id="metadata4142"><rdf:RDF><cc:Work
         rdf:about=""><dc:format>image/svg+xml</dc:format><dc:type
           rdf:resource="http://purl.org/dc/dcmitype/StillImage" /><dc:title></dc:title></cc:Work></rdf:RDF></metadata><defs
     id="defs4140"><clipPath
       clipPathUnits="userSpaceOnUse"
       id="clipPath4162"><path
         d="m 0,0 123.7527,0 0,73.3861 L 0,73.3861 0,0 Z"
         id="path4164"
         inkscape:connector-curvature="0"
         style="clip-rule:evenodd" /></clipPath><linearGradient
       x1="65.599998"
       y1="218.97"
       x2="65.599998"
       y2="22.809999"
       gradientUnits="userSpaceOnUse"
       spreadMethod="pad"
       id="linearGradient4166"><stop
         style="stop-opacity:1;stop-color:#ffffff"
         offset="0"
         id="stop4168" /><stop
         style="stop-opacity:0;stop-color:#ffffff"
         offset="1"
         id="stop4170" /></linearGradient><mask
       maskUnits="userSpaceOnUse"
       x="0"
       y="0"
       width="1"
       height="1"
       id="mask4172"><g
         id="g4174"><g
           id="g4176"><g
             transform="translate(298.1775,190.0123)"
             id="g4178"><g
               id="g4180"><g
                 clip-path="url(#clipPath4162)"
                 id="g4182"><path
                   d="m 0,0 123.7527,0 0,73.3861 L 0,73.3861 0,0 Z"
                   style="fill:url(#linearGradient4166);fill-rule:evenodd;stroke:none"
                   id="path4184"
                   inkscape:connector-curvature="0" /></g></g></g></g></g></mask><clipPath
       clipPathUnits="userSpaceOnUse"
       id="clipPath4198"><path
         d="m 0,0 157.9975,0 0,74.1657 L 0,74.1657 0,0 Z"
         id="path4200"
         inkscape:connector-curvature="0"
         style="clip-rule:evenodd" /></clipPath><linearGradient
       x1="83.75"
       y1="221.3"
       x2="83.75"
       y2="23.049999"
       gradientUnits="userSpaceOnUse"
       spreadMethod="pad"
       id="linearGradient4202"><stop
         style="stop-opacity:1;stop-color:#ffffff"
         offset="0"
         id="stop4204" /><stop
         style="stop-opacity:0;stop-color:#ffffff"
         offset="1"
         id="stop4206" /></linearGradient><mask
       maskUnits="userSpaceOnUse"
       x="0"
       y="0"
       width="1"
       height="1"
       id="mask4208"><g
         id="g4210"><g
           id="g4212"><g
             transform="translate(298.1795,189.2333)"
             id="g4214"><g
               id="g4216"><g
                 clip-path="url(#clipPath4198)"
                 id="g4218"><path
                   d="m 0,0 157.9975,0 0,74.1657 L 0,74.1657 0,0 Z"
                   style="fill:url(#linearGradient4202);fill-rule:evenodd;stroke:none"
                   id="path4220"
                   inkscape:connector-curvature="0" /></g></g></g></g></g></mask><clipPath
       clipPathUnits="userSpaceOnUse"
       id="clipPath4295"><path
         d="m 402.52681,501.10165 c 0,-91.7274 -72.4365,-168.9902 -171.0711,-192.2516 -19.7901,-4.6672 -40.6344,-7.1603 -62.1599,-7.1603 -21.5254,0 -42.37,2.4931 -62.1601,7.1603 5.6308,-24.9625 31.3206,-43.8165 62.1601,-43.8165 9.0253,0 16.3415,-6.2558 16.3415,-13.9714 0,-7.7165 -7.3162,-13.9723 -16.3415,-13.9723 -0.1431,0 -0.2871,0.002 -0.4291,0.005 -149.474,0.1988 -270.5786,103.8595 -270.5786,231.7074 0,126.2497 118.0951,228.9081 264.9867,231.6467 2.0021,0.0379 4.0084,0.0654 6.021,0.0654 128.8106,0 233.231,-89.28 233.231,-199.4122"
         style="fill:#0d53b5;fill-opacity:1;fill-rule:evenodd;stroke:none"
         id="path4297"
         inkscape:connector-curvature="0" /></clipPath></defs><sodipodi:namedview
     pagecolor="#ffffff"
     bordercolor="#666666"
     borderopacity="1"
     objecttolerance="10"
     gridtolerance="10"
     guidetolerance="10"
     inkscape:pageopacity="0"
     inkscape:pageshadow="2"
     inkscape:window-width="1920"
     inkscape:window-height="1015"
     id="namedview4138"
     showgrid="false"
     fit-margin-top="0"
     fit-margin-left="0"
     fit-margin-right="0"
     fit-margin-bottom="0"
     inkscape:zoom="0.81910954"
     inkscape:cx="63.047248"
     inkscape:cy="289.6399"
     inkscape:window-x="-4"
     inkscape:window-y="-4"
     inkscape:window-maximized="1"
     inkscape:current-layer="g4144" /><g
     id="g4144"
     inkscape:groupmode="layer"
     inkscape:label="englishONfinal-split"
     transform="matrix(1.25,0,0,-1.25,-211.03088,815.82188)"><g
       id="g4146"
       clip-path="url(#clipPath4295)"
       transform="translate(271.51436,-47.856847)"><g
         id="g4274"
         transform="matrix(0.13333333,0,0,-0.13333333,-109.33114,749.07078)"><rect
           id="rect4237"
           height="3900"
           width="7410"
           x="0"
           y="0"
           style="fill:#b22234" /><path
           id="path4239"
           d="m 0,450 7410,0 m 0,600 -7410,0 m 0,600 7410,0 m 0,600 -7410,0 m 0,600 7410,0 m 0,600 -7410,0"
           inkscape:connector-curvature="0"
           style="stroke:#ffffff;stroke-width:300" /><rect
           id="rect4241"
           height="2100"
           width="2964"
           x="0"
           y="0"
           style="fill:#3c3b6e" /><g
           id="g4243"
           style="fill:#ffffff"><g
             id="s18"><g
               id="s9"><g
                 id="s5"><g
                   id="s4"><path
                     d="m 247,90 70.53423,217.08204 -184.66101,-134.16408 228.25356,0 -184.66101,134.16408 z"
                     id="s"
                     inkscape:connector-curvature="0" /><use
                     id="use4250"
                     y="420"
                     xlink:href="#s"
                     x="0"
                     width="100%"
                     height="100%" /><use
                     id="use4252"
                     y="840"
                     xlink:href="#s"
                     x="0"
                     width="100%"
                     height="100%" /><use
                     id="use4254"
                     y="1260"
                     xlink:href="#s"
                     x="0"
                     width="100%"
                     height="100%" /></g><use
                   id="use4256"
                   y="1680"
                   xlink:href="#s"
                   x="0"
                   width="100%"
                   height="100%" /></g><use
                 id="use4258"
                 y="210"
                 x="247"
                 xlink:href="#s4"
                 width="100%"
                 height="100%" /></g><use
               id="use4260"
               x="494"
               xlink:href="#s9"
               y="0"
               width="100%"
               height="100%" /></g><use
             id="use4262"
             x="988"
             xlink:href="#s18"
             y="0"
             width="100%"
             height="100%" /><use
             id="use4264"
             x="1976"
             xlink:href="#s9"
             y="0"
             width="100%"
             height="100%" /><use
             id="use4266"
             x="2470"
             xlink:href="#s5"
             y="0"
             width="100%"
             height="100%" /></g></g></g></g></svg>