<?xml version="1.0" encoding="UTF-8" standalone="no"?>
<!-- Created with Inkscape (http://www.inkscape.org/) -->

<svg
   xmlns:dc="http://purl.org/dc/elements/1.1/"
   xmlns:cc="http://creativecommons.org/ns#"
   xmlns:rdf="http://www.w3.org/1999/02/22-rdf-syntax-ns#"
   xmlns:svg="http://www.w3.org/2000/svg"
   xmlns="http://www.w3.org/2000/svg"
   xmlns:sodipodi="http://sodipodi.sourceforge.net/DTD/sodipodi-0.dtd"
   xmlns:inkscape="http://www.inkscape.org/namespaces/inkscape"
   width="177.8842mm"
   height="163.48587mm"
   viewBox="0 0 630.29835 579.28064"
   id="svg11787"
   version="1.1"
   inkscape:version="0.91 r13725"
   sodipodi:docname="button-chinese.svg">
  <defs
     id="defs11789">
    <clipPath
       id="clipPath11819"
       clipPathUnits="userSpaceOnUse">
      <path
         style="clip-rule:evenodd"
         inkscape:connector-curvature="0"
         id="path11821"
         d="m 0,0 157.9975,0 0,74.1657 L 0,74.1657 0,0 Z" />
    </clipPath>
    <linearGradient
       id="linearGradient11823"
       spreadMethod="pad"
       gradientUnits="userSpaceOnUse"
       y2="23.049999"
       x2="83.75"
       y1="221.3"
       x1="83.75">
      <stop
         id="stop11825"
         offset="0"
         style="stop-opacity:1;stop-color:#ffffff" />
      <stop
         id="stop11827"
         offset="1"
         style="stop-opacity:0;stop-color:#ffffff" />
    </linearGradient>
    <mask
       id="mask11829"
       height="1"
       width="1"
       y="0"
       x="0"
       maskUnits="userSpaceOnUse">
      <g
         id="g11831">
        <g
           id="g11833">
          <g
             id="g11835"
             transform="translate(298.1631,189.2993)">
            <g
               id="g11837">
              <g
                 id="g11839"
                 clip-path="url(#clipPath11819)">
                <path
                   inkscape:connector-curvature="0"
                   id="path11841"
                   style="fill:url(#linearGradient11823);fill-rule:evenodd;stroke:none"
                   d="m 0,0 157.9975,0 0,74.1657 L 0,74.1657 0,0 Z" />
              </g>
            </g>
          </g>
        </g>
      </g>
    </mask>
  </defs>
  <sodipodi:namedview
     id="base"
     pagecolor="#ffffff"
     bordercolor="#666666"
     borderopacity="1.0"
     inkscape:pageopacity="0.0"
     inkscape:pageshadow="2"
     inkscape:zoom="1.4880525"
     inkscape:cx="315.14918"
     inkscape:cy="289.64033"
     inkscape:document-units="px"
     inkscape:current-layer="layer1"
     showgrid="false"
     fit-margin-top="0"
     fit-margin-left="0"
     fit-margin-right="0"
     fit-margin-bottom="0"
     inkscape:window-width="1920"
     inkscape:window-height="1017"
     inkscape:window-x="-4"
     inkscape:window-y="-4"
     inkscape:window-maximized="1" />
  <metadata
     id="metadata11792">
    <rdf:RDF>
      <cc:Work
         rdf:about="">
        <dc:format>image/svg+xml</dc:format>
        <dc:type
           rdf:resource="http://purl.org/dc/dcmitype/StillImage" />
        <dc:title></dc:title>
      </cc:Work>
    </rdf:RDF>
  </metadata>
  <g
     inkscape:label="Layer 1"
     inkscape:groupmode="layer"
     id="layer1"
     transform="translate(878.00632,234.42096)">
    <g
       transform="matrix(1.25,0,0,-1.25,-1089.0382,581.40054)"
       inkscape:label="logo-chinese"
       id="g11803">
      <g
         id="g11805">
        <path
           inkscape:connector-curvature="0"
           id="path11807"
           style="fill:#e62609;fill-opacity:1;fill-rule:evenodd;stroke:none"
           d="m 673.0642,453.2448 c 0,-91.7277 -72.4365,-168.9905 -171.0708,-192.2519 -19.7901,-4.6672 -40.6347,-7.16 -62.1599,-7.16 -21.5254,0 -42.37,2.4928 -62.1601,7.16 5.6308,-24.9624 31.3206,-43.8165 62.1601,-43.8165 9.0253,0 16.3415,-6.2558 16.3415,-13.9714 0,-7.7165 -7.3162,-13.9723 -16.3415,-13.9723 -0.1431,0 -0.2871,0.002 -0.4291,0.005 -149.474,0.1987 -270.5789,103.8594 -270.5789,231.7073 0,126.2497 118.0954,228.9081 264.987,231.6467 2.0021,0.038 4.0084,0.0655 6.021,0.0655 128.8106,0 233.2307,-89.2798 233.2307,-199.412" />
        <path
           inkscape:connector-curvature="0"
           id="path11809"
           style="fill:#f5bc11;fill-opacity:1;fill-rule:evenodd;stroke:none"
           d="m 479.8599,556.6657 27.1701,-70.3751 74.4754,-3.4762 -58.534,-47.5872 19.7096,-71.9056 -63.3458,40.9646 -62.2965,-40.9646 19.3842,72.9032 -58.2086,46.5896 75.3256,4.0921 26.32,69.7592 z" />
        <g
           id="g11811">
          <g
             id="g11813" />
          <g
             mask="url(#mask11829)"
             id="g11843">
            <path
               inkscape:connector-curvature="0"
               id="path11845"
               style="fill:#000000;fill-opacity:1;fill-rule:evenodd;stroke:none"
               d="m 358.9951,263.465 c 6.4984,0 12.7658,-0.8427 18.6625,-2.4069 l 0.0158,-0.0638 c 5.6606,-24.9301 31.3339,-43.751 62.1457,-43.751 9.0258,0 16.3414,-6.2564 16.3414,-13.9726 0,-7.7161 -7.3156,-13.9714 -16.3414,-13.9714 -0.1426,0 -0.2863,0.003 -0.4289,0.005 -51.2878,0.0675 -99.2333,12.3174 -140.0944,33.5455 l -0.7458,0.3932 -0.3869,0.2063 c 7.1189,23.033 31.6544,40.0156 60.832,40.0156" />
          </g>
        </g>
      </g>
    </g>
  </g>
</svg>
