<?xml version="1.0" encoding="UTF-8" standalone="no"?>
<!-- Created with Inkscape (http://www.inkscape.org/) -->

<svg
   xmlns:dc="http://purl.org/dc/elements/1.1/"
   xmlns:cc="http://creativecommons.org/ns#"
   xmlns:rdf="http://www.w3.org/1999/02/22-rdf-syntax-ns#"
   xmlns:svg="http://www.w3.org/2000/svg"
   xmlns="http://www.w3.org/2000/svg"
   xmlns:sodipodi="http://sodipodi.sourceforge.net/DTD/sodipodi-0.dtd"
   xmlns:inkscape="http://www.inkscape.org/namespaces/inkscape"
   width="177.88411mm"
   height="163.48601mm"
   viewBox="0 0 630.29803 579.28113"
   id="svg9265"
   version="1.1"
   inkscape:version="0.91 r13725"
   sodipodi:docname="button-french.svg">
  <defs
     id="defs9267">
    <clipPath
       id="clipPath11074"
       clipPathUnits="userSpaceOnUse">
      <path
         style="clip-rule:evenodd"
         inkscape:connector-curvature="0"
         id="path11076"
         d="m 0,0 157.9975,0 0,74.1657 L 0,74.1657 0,0 Z" />
    </clipPath>
    <linearGradient
       id="linearGradient11078"
       spreadMethod="pad"
       gradientUnits="userSpaceOnUse"
       y2="23.049999"
       x2="83.75"
       y1="221.3"
       x1="83.75">
      <stop
         id="stop11080"
         offset="0"
         style="stop-opacity:1;stop-color:#ffffff" />
      <stop
         id="stop11082"
         offset="1"
         style="stop-opacity:0;stop-color:#ffffff" />
    </linearGradient>
    <mask
       id="mask11084"
       height="1"
       width="1"
       y="0"
       x="0"
       maskUnits="userSpaceOnUse">
      <g
         id="g11086">
        <g
           id="g11088">
          <g
             id="g11090"
             transform="translate(298.1639,189.2979)">
            <g
               id="g11092">
              <g
                 id="g11094"
                 clip-path="url(#clipPath11074)">
                <path
                   inkscape:connector-curvature="0"
                   id="path11096"
                   style="fill:url(#linearGradient11078);fill-rule:evenodd;stroke:none"
                   d="m 0,0 157.9975,0 0,74.1657 L 0,74.1657 0,0 Z" />
              </g>
            </g>
          </g>
        </g>
      </g>
    </mask>
  </defs>
  <sodipodi:namedview
     id="base"
     pagecolor="#ffffff"
     bordercolor="#666666"
     borderopacity="1.0"
     inkscape:pageopacity="0.0"
     inkscape:pageshadow="2"
     inkscape:zoom="0.49497475"
     inkscape:cx="240.2871"
     inkscape:cy="608.70211"
     inkscape:document-units="px"
     inkscape:current-layer="layer1"
     showgrid="false"
     fit-margin-top="0"
     fit-margin-left="0"
     fit-margin-right="0"
     fit-margin-bottom="0"
     inkscape:window-width="1920"
     inkscape:window-height="1017"
     inkscape:window-x="-4"
     inkscape:window-y="-4"
     inkscape:window-maximized="1" />
  <metadata
     id="metadata9270">
    <rdf:RDF>
      <cc:Work
         rdf:about="">
        <dc:format>image/svg+xml</dc:format>
        <dc:type
           rdf:resource="http://purl.org/dc/dcmitype/StillImage" />
        <dc:title></dc:title>
      </cc:Work>
    </rdf:RDF>
  </metadata>
  <g
     inkscape:label="Layer 1"
     inkscape:groupmode="layer"
     id="layer1"
     transform="translate(-1247.7082,-665.57883)">
    <g
       transform="matrix(1.25,0,0,-1.25,1036.6763,1481.4002)"
       inkscape:label="logo-french"
       id="g11056">
      <g
         id="g11058">
        <path
           inkscape:connector-curvature="0"
           id="path11060"
           style="fill:#e62609;fill-opacity:1;fill-rule:evenodd;stroke:none"
           d="m 673.0639,453.2445 c 0,-91.7277 -72.4365,-168.9902 -171.0708,-192.2519 -19.7901,-4.6669 -40.6344,-7.16 -62.1598,-7.16 -21.5255,0 -42.3701,2.4931 -62.1601,7.16 5.6307,-24.9621 31.3205,-43.8162 62.1601,-43.8162 9.0252,0 16.3414,-6.2558 16.3414,-13.9714 0,-7.7165 -7.3162,-13.9723 -16.3414,-13.9723 -0.1432,0 -0.2872,0.002 -0.4292,0.004 -149.474,0.1987 -270.5786,103.8597 -270.5786,231.7076 0,126.2494 118.0951,228.9081 264.9867,231.6467 2.0021,0.038 4.0085,0.0652 6.0211,0.0652 128.8105,0 233.2306,-89.2797 233.2306,-199.412" />
        <path
           inkscape:connector-curvature="0"
           id="path11062"
           style="fill:#0d53b5;fill-opacity:1;fill-rule:evenodd;stroke:none"
           d="m 337.2627,635.4669 0,-429.0398 C 246.4234,238.2106 180.2565,310.934 170.17,397.7722 l 0,46.3967 c 10.1067,86.8178 76.269,159.5233 167.0927,191.298" />
        <path
           inkscape:connector-curvature="0"
           id="path11064"
           style="fill:#ffffff;fill-opacity:1;fill-rule:evenodd;stroke:none"
           d="m 504.3577,644.9204 0,-383.3495 -2.3649,-0.5788 c -19.7904,-4.6656 -40.6338,-7.1604 -62.1587,-7.1604 -21.5252,0 -42.3709,2.4948 -62.1612,7.1604 5.6313,-24.9611 31.3208,-43.8149 62.1612,-43.8149 9.0244,0 16.3409,-6.2569 16.3409,-13.9714 0,-7.7167 -7.3165,-13.9736 -16.3409,-13.9736 -0.1431,0 -0.2886,0.002 -0.4294,0.004 -36.1472,0.0493 -70.6244,6.1631 -102.142,17.1907 l 0,429.0398 c 29.8857,10.4573 62.4382,16.4886 96.5489,17.1235 2.003,0.038 4.0082,0.0669 6.0225,0.0669 22.3855,0 44.0314,-2.7025 64.5236,-7.7369" />
        <g
           id="g11066">
          <g
             id="g11068" />
          <g
             mask="url(#mask11084)"
             id="g11098">
            <path
               inkscape:connector-curvature="0"
               id="path11100"
               style="fill:#000000;fill-opacity:1;fill-rule:evenodd;stroke:none"
               d="m 358.996,263.4636 c 6.4987,0 12.7661,-0.843 18.6624,-2.4072 l 0.0162,-0.0638 c 5.6605,-24.9298 31.3336,-43.751 62.1453,-43.751 9.0261,0 16.3415,-6.2564 16.3415,-13.9726 0,-7.7159 -7.3154,-13.9711 -16.3415,-13.9711 -0.1425,0 -0.2863,0.002 -0.4288,0.005 -51.2876,0.0675 -99.2333,12.3174 -140.0942,33.5455 l -0.7458,0.3932 -0.3872,0.2063 c 7.1189,23.033 31.6545,40.0159 60.8321,40.0159" />
          </g>
        </g>
      </g>
    </g>
  </g>
</svg>
