<?xml version="1.0" encoding="UTF-8" standalone="no"?>
<!-- Generator: Adobe Illustrator 19.1.0, SVG Export Plug-In . SVG Version: 6.00 Build 0)  -->

<svg
   xmlns:dc="http://purl.org/dc/elements/1.1/"
   xmlns:cc="http://creativecommons.org/ns#"
   xmlns:rdf="http://www.w3.org/1999/02/22-rdf-syntax-ns#"
   xmlns:svg="http://www.w3.org/2000/svg"
   xmlns="http://www.w3.org/2000/svg"
   xmlns:sodipodi="http://sodipodi.sourceforge.net/DTD/sodipodi-0.dtd"
   xmlns:inkscape="http://www.inkscape.org/namespaces/inkscape"
   version="1.1"
   x="0px"
   y="0px"
   viewBox="0 0 15 12"
   style="enable-background:new 0 0 15 12;"
   xml:space="preserve"
   id="svg7782"
   inkscape:version="0.91 r13725"
   sodipodi:docname="question-sound-off-hover.svg"><metadata
   id="metadata7827"><rdf:RDF><cc:Work
       rdf:about=""><dc:format>image/svg+xml</dc:format><dc:type
         rdf:resource="http://purl.org/dc/dcmitype/StillImage" /><dc:title></dc:title></cc:Work></rdf:RDF></metadata><defs
   id="defs7825" /><sodipodi:namedview
   pagecolor="#ffffff"
   bordercolor="#666666"
   borderopacity="1"
   objecttolerance="10"
   gridtolerance="10"
   guidetolerance="10"
   inkscape:pageopacity="0"
   inkscape:pageshadow="2"
   inkscape:window-width="1920"
   inkscape:window-height="1017"
   id="namedview7823"
   showgrid="false"
   inkscape:zoom="19.666667"
   inkscape:cx="0.78813559"
   inkscape:cy="6"
   inkscape:window-x="-4"
   inkscape:window-y="-4"
   inkscape:window-maximized="1"
   inkscape:current-layer="g7811" />
<style
   type="text/css"
   id="style7784">
	.st0{fill:#FFFFFF;}
	.st1{clip-path:url(#SVGID_5_);fill:url(#SVGID_6_);}
	.st2{fill-rule:evenodd;clip-rule:evenodd;fill:url(#SVGID_7_);}
	.st3{fill:#00B9E7;}
	.st4{clip-path:url(#SVGID_9_);fill:#FFFFFF;}
	.st5{clip-path:url(#SVGID_13_);fill:#FFFFFF;}
	.st6{fill-rule:evenodd;clip-rule:evenodd;fill:url(#SVGID_14_);}
	.st7{opacity:0.91;fill:#FAFBFC;}
	.st8{display:none;}
	.st9{display:inline;}
	.st10{fill:#9FAAC1;}
	.st11{fill:#36D7B7;}
	.st12{display:inline;fill:#78909C;}
	.st13{fill:#34314C;}
	.st14{fill:#FF4D63;}
	.st15{fill:#FFFEFD;}
	.st16{display:inline;fill:#FFFFFF;}
	.st17{fill:#FF0000;}
	.st18{fill:none;stroke:#FF0000;stroke-miterlimit:10;}
	.st19{fill:#FF0000;stroke:#FF0000;stroke-miterlimit:10;}
	.st20{fill:#78909C;stroke:#FF0000;stroke-miterlimit:10;}
	.st21{fill:#FFFFFF;stroke:#FF0000;stroke-miterlimit:10;}
	.st22{display:inline;fill:#E8E9EA;}
	.st23{fill:#333340;}
	.st24{display:inline;fill:#263238;}
	.st25{fill:#263238;stroke:#FF0000;stroke-miterlimit:10;}
	.st26{fill:#9AA3B2;}
	.st27{fill:#4B5666;}
	.st28{fill:#78909C;}
	.st29{fill:#CFD8DC;}
	.st30{fill:#FF00ED;stroke:#FF0000;stroke-miterlimit:10;}
	.st31{fill:#FF00ED;}
	.st32{fill:#4B5666;stroke:#FF0000;stroke-miterlimit:10;}
	.st33{fill:#FF0000;stroke:#F3FF00;stroke-miterlimit:10;}
	.st34{fill:#F3FF00;}
	.st35{fill:#CFD8DC;stroke:#FF0000;stroke-miterlimit:10;}
	.st36{fill:#263238;}
	.st37{fill:#B0BEC5;}
	.st38{fill:#E8E9EA;}
	.st39{fill:#8292A0;}
	.st40{fill:#BAC7D3;}
	.st41{fill:#2CC6A8;}
	.st42{fill:#27A88F;}
	.st43{display:inline;fill:#4B5666;}
	.st44{display:inline;fill:#8292A0;}
	.st45{display:inline;fill:#2CC6A8;}
	.st46{display:inline;fill:#B8F4E9;}
	.st47{display:inline;fill:#2FB299;}
</style>
<g
   id="back">
</g>
<g
   id="_x31_">
</g>
<g
   id="_x31__2_"
   class="st8">
</g>
<g
   id="_x31__1_"
   class="st8">
	<g
   id="Text_Properties"
   class="st9">
	</g>
	<g
   id="Dimensions">
	</g>
	<g
   id="Object_Properties"
   class="st9">
	</g>
	<g
   id="Spacing"
   class="st9">
	</g>
</g>
<g
   id="_x32_"
   class="st8">
</g>
<g
   id="_x32__1_"
   class="st8">
	<g
   id="Text_Properties_1_"
   class="st9">
	</g>
	<g
   id="Object_Properties_1_"
   class="st9">
	</g>
</g>
<g
   id="_x33_"
   class="st8">
</g>
<g
   id="_x33__1_"
   class="st8">
	<g
   id="Spacing_1_"
   class="st9">
	</g>
	<g
   id="Text_Properties_2_"
   class="st9">
	</g>
	<g
   id="Object_Properties_2_"
   class="st9">
	</g>
	<g
   id="Dimensions_1_"
   class="st9">
	</g>
</g>
<g
   id="_x34__1_">
</g>
<g
   id="_x34_">
	<g
   id="Spacing_2_">
	</g>
	<g
   id="Dimensions_2_">
	</g>
	<g
   id="Text_Properties_3_">
	</g>
</g>
<g
   id="sound_over">
</g>
<g
   id="no_sound">
	<g
   id="g7811">
		<path
   class="st37"
   d="M14.9,8l-1.4-1.4c-0.2-0.2-0.2-0.5,0-0.7l1.4-1.4c0.2-0.2,0.2-0.5,0-0.7l-0.5-0.5c-0.2-0.2-0.5-0.2-0.7,0    l-1.4,1.4c-0.2,0.2-0.5,0.2-0.7,0L10,3.2C9.8,3,9.5,3,9.3,3.2L8.8,3.7c-0.2,0.2-0.2,0.5,0,0.7l1.4,1.4c0.2,0.2,0.2,0.5,0,0.7    L8.8,8c-0.2,0.2-0.2,0.5,0,0.7l0.5,0.5c0.2,0.2,0.5,0.2,0.7,0l1.4-1.4c0.2-0.2,0.5-0.2,0.7,0l1.4,1.4c0.2,0.2,0.5,0.2,0.7,0    l0.5-0.5C15,8.5,15,8.2,14.9,8"
   id="path7813"
   style="fill:#263238;fill-opacity:1" />
		<path
   class="st37"
   d="M6.9,6.1c0,1.6-0.1,3.4-0.1,4.3c0,0.7-0.4,1.1-1.1,0.5C4.5,10.1,3.5,9.3,3.1,9S2.3,8.4,1.4,8.4    c-0.9,0-1.3-0.6-1.3-1.1C0,6.8,0,6.2,0,6.1C0,6,0,5.3,0.1,4.8c0.1-0.5,0.4-1.1,1.3-1.1c0.9,0,1.3-0.3,1.7-0.6    C3.5,2.8,4.5,2,5.6,1.2C6.3,0.7,6.7,1,6.7,1.7C6.7,2.6,6.9,4.5,6.9,6.1"
   id="path7815"
   style="fill:#263238;fill-opacity:1" />
	</g>
</g>
<g
   id="over_word">
</g>
<g
   id="press_wrong_word">
</g>
<g
   id="press_answer"
   class="st8">
</g>
<g
   id="answer"
   class="st8">
</g>
<g
   id="answer_rest"
   class="st8">
</g>
<g
   id="answer_over"
   class="st8">
</g>
</svg>