<?xml version="1.0" encoding="UTF-8" standalone="no"?>
<!-- Created with Inkscape (http://www.inkscape.org/) -->

<svg
   xmlns:dc="http://purl.org/dc/elements/1.1/"
   xmlns:cc="http://creativecommons.org/ns#"
   xmlns:rdf="http://www.w3.org/1999/02/22-rdf-syntax-ns#"
   xmlns:svg="http://www.w3.org/2000/svg"
   xmlns="http://www.w3.org/2000/svg"
   xmlns:sodipodi="http://sodipodi.sourceforge.net/DTD/sodipodi-0.dtd"
   xmlns:inkscape="http://www.inkscape.org/namespaces/inkscape"
   width="177.88431mm"
   height="163.48552mm"
   viewBox="0 0 630.29873 579.2794"
   id="svg11787"
   version="1.1"
   inkscape:version="0.91 r13725"
   sodipodi:docname="button-spanish.svg">
  <defs
     id="defs11789">
    <clipPath
       id="clipPath11819"
       clipPathUnits="userSpaceOnUse">
      <path
         style="clip-rule:evenodd"
         inkscape:connector-curvature="0"
         id="path11821"
         d="m 0,0 157.9975,0 0,74.1657 L 0,74.1657 0,0 Z" />
    </clipPath>
    <linearGradient
       id="linearGradient11823"
       spreadMethod="pad"
       gradientUnits="userSpaceOnUse"
       y2="23.049999"
       x2="83.75"
       y1="221.3"
       x1="83.75">
      <stop
         id="stop11825"
         offset="0"
         style="stop-opacity:1;stop-color:#ffffff" />
      <stop
         id="stop11827"
         offset="1"
         style="stop-opacity:0;stop-color:#ffffff" />
    </linearGradient>
    <mask
       id="mask11829"
       height="1"
       width="1"
       y="0"
       x="0"
       maskUnits="userSpaceOnUse">
      <g
         id="g11831">
        <g
           id="g11833">
          <g
             id="g11835"
             transform="translate(298.1631,189.2993)">
            <g
               id="g11837">
              <g
                 id="g11839"
                 clip-path="url(#clipPath11819)">
                <path
                   inkscape:connector-curvature="0"
                   id="path11841"
                   style="fill:url(#linearGradient11823);fill-rule:evenodd;stroke:none"
                   d="m 0,0 157.9975,0 0,74.1657 L 0,74.1657 0,0 Z" />
              </g>
            </g>
          </g>
        </g>
      </g>
    </mask>
    <clipPath
       id="clipPath11955"
       clipPathUnits="userSpaceOnUse">
      <path
         style="clip-rule:evenodd"
         inkscape:connector-curvature="0"
         id="path11957"
         d="m 0,0 157.9975,0 0,74.166 L 0,74.166 0,0 Z" />
    </clipPath>
    <mask
       id="mask11965"
       height="1"
       width="1"
       y="0"
       x="0"
       maskUnits="userSpaceOnUse">
      <g
         id="g11967">
        <g
           id="g11969">
          <g
             id="g11971"
             transform="translate(298.1631,189.2979)">
            <g
               id="g11973">
              <g
                 id="g11975"
                 clip-path="url(#clipPath11955)">
                <path
                   inkscape:connector-curvature="0"
                   id="path11977"
                   style="fill:url(#linearGradient11823);fill-rule:evenodd;stroke:none"
                   d="m 0,0 157.9975,0 0,74.166 L 0,74.166 0,0 Z" />
              </g>
            </g>
          </g>
        </g>
      </g>
    </mask>
  </defs>
  <sodipodi:namedview
     id="base"
     pagecolor="#ffffff"
     bordercolor="#666666"
     borderopacity="1.0"
     inkscape:pageopacity="0.0"
     inkscape:pageshadow="2"
     inkscape:zoom="0.263053"
     inkscape:cx="-442.00939"
     inkscape:cy="-151.3336"
     inkscape:document-units="px"
     inkscape:current-layer="layer1"
     showgrid="false"
     inkscape:window-width="1920"
     inkscape:window-height="1017"
     inkscape:window-x="-4"
     inkscape:window-y="-4"
     inkscape:window-maximized="1"
     fit-margin-top="0"
     fit-margin-left="0"
     fit-margin-right="0"
     fit-margin-bottom="0" />
  <metadata
     id="metadata11792">
    <rdf:RDF>
      <cc:Work
         rdf:about="">
        <dc:format>image/svg+xml</dc:format>
        <dc:type
           rdf:resource="http://purl.org/dc/dcmitype/StillImage" />
        <dc:title></dc:title>
      </cc:Work>
    </rdf:RDF>
  </metadata>
  <g
     inkscape:label="Layer 1"
     inkscape:groupmode="layer"
     id="layer1"
     transform="translate(-172.06461,-433.43307)">
    <g
       transform="matrix(1.25,0,0,-1.25,-38.967267,1249.2537)"
       inkscape:label="logo-spanish"
       id="g11941">
      <path
         inkscape:connector-curvature="0"
         id="path11943"
         style="fill:#e62609;fill-opacity:1;fill-rule:evenodd;stroke:none"
         d="m 673.0645,453.2448 c 0,-91.7277 -72.4365,-168.9902 -171.0709,-192.2519 -19.7903,-4.6672 -40.6346,-7.16 -62.1601,-7.16 -21.5254,0 -42.37,2.4928 -62.1601,7.16 5.6308,-24.9624 31.3209,-43.8162 62.1601,-43.8162 9.0253,0 16.3418,-6.2561 16.3418,-13.9714 0,-7.7165 -7.3165,-13.9723 -16.3418,-13.9723 -0.1431,0 -0.2871,0.002 -0.4291,0.004 -149.474,0.1987 -270.5786,103.8597 -270.5786,231.7076 0,126.2494 118.0951,228.9081 264.9867,231.6464 2.0021,0.038 4.0084,0.0655 6.021,0.0655 128.8106,0 233.231,-89.2798 233.231,-199.412" />
      <path
         inkscape:connector-curvature="0"
         id="path11945"
         style="fill:#ffe521;fill-opacity:1;fill-rule:evenodd;stroke:none"
         d="m 191.0279,512.8997 471.4138,0 c 6.8972,-18.8377 10.622,-38.8744 10.622,-59.6554 0,-46.9871 -19.0109,-90.1738 -50.8094,-124.2542 l -431.2289,0 c -14.2739,28.1928 -22.1999,59.2793 -22.1999,91.9548 0,32.6755 7.9288,63.7619 22.2024,91.9548" />
      <g
         id="g11947">
        <g
           id="g11949" />
        <g
           mask="url(#mask11965)"
           id="g11979">
          <path
             inkscape:connector-curvature="0"
             id="path11981"
             style="fill:#332c2b;fill-opacity:1;fill-rule:evenodd;stroke:none"
             d="m 358.9951,263.4639 c 6.4987,0 12.7661,-0.843 18.6625,-2.4072 l 0.0161,-0.0638 c 5.6605,-24.9298 31.3339,-43.751 62.1454,-43.751 9.0261,0 16.3414,-6.2564 16.3414,-13.9726 0,-7.7159 -7.3153,-13.9714 -16.3414,-13.9714 -0.1423,0 -0.2863,0.003 -0.4286,0.005 -51.2878,0.0675 -99.2333,12.3174 -140.0944,33.5455 l -0.7458,0.3932 -0.3872,0.2063 c 7.1192,23.0329 31.6547,40.0159 60.832,40.0159" />
        </g>
      </g>
    </g>
  </g>
</svg>
