<?xml version="1.0" encoding="UTF-8" standalone="no"?>
<!-- Created with Inkscape (http://www.inkscape.org/) -->

<svg
   xmlns:dc="http://purl.org/dc/elements/1.1/"
   xmlns:cc="http://creativecommons.org/ns#"
   xmlns:rdf="http://www.w3.org/1999/02/22-rdf-syntax-ns#"
   xmlns:svg="http://www.w3.org/2000/svg"
   xmlns="http://www.w3.org/2000/svg"
   xmlns:sodipodi="http://sodipodi.sourceforge.net/DTD/sodipodi-0.dtd"
   xmlns:inkscape="http://www.inkscape.org/namespaces/inkscape"
   id="svg4136"
   version="1.1"
   inkscape:version="0.91 r13725"
   xml:space="preserve"
   width="630.30011"
   height="579.28064"
   viewBox="0 0 630.30011 579.28064"
   sodipodi:docname="button-english.svg"><metadata
     id="metadata4142"><rdf:RDF><cc:Work
         rdf:about=""><dc:format>image/svg+xml</dc:format><dc:type
           rdf:resource="http://purl.org/dc/dcmitype/StillImage" /><dc:title></dc:title></cc:Work></rdf:RDF></metadata><defs
     id="defs4140"><clipPath
       clipPathUnits="userSpaceOnUse"
       id="clipPath4162"><path
         d="m 0,0 123.7527,0 0,73.3861 L 0,73.3861 0,0 Z"
         id="path4164"
         inkscape:connector-curvature="0"
         style="clip-rule:evenodd" /></clipPath><linearGradient
       x1="65.599998"
       y1="218.97"
       x2="65.599998"
       y2="22.809999"
       gradientUnits="userSpaceOnUse"
       spreadMethod="pad"
       id="linearGradient4166"><stop
         style="stop-opacity:1;stop-color:#ffffff"
         offset="0"
         id="stop4168" /><stop
         style="stop-opacity:0;stop-color:#ffffff"
         offset="1"
         id="stop4170" /></linearGradient><mask
       maskUnits="userSpaceOnUse"
       x="0"
       y="0"
       width="1"
       height="1"
       id="mask4172"><g
         id="g4174"><g
           id="g4176"><g
             transform="translate(298.1775,190.0123)"
             id="g4178"><g
               id="g4180"><g
                 clip-path="url(#clipPath4162)"
                 id="g4182"><path
                   d="m 0,0 123.7527,0 0,73.3861 L 0,73.3861 0,0 Z"
                   style="fill:url(#linearGradient4166);fill-rule:evenodd;stroke:none"
                   id="path4184"
                   inkscape:connector-curvature="0" /></g></g></g></g></g></mask><clipPath
       clipPathUnits="userSpaceOnUse"
       id="clipPath4198"><path
         d="m 0,0 157.9975,0 0,74.1657 L 0,74.1657 0,0 Z"
         id="path4200"
         inkscape:connector-curvature="0"
         style="clip-rule:evenodd" /></clipPath><linearGradient
       x1="83.75"
       y1="221.3"
       x2="83.75"
       y2="23.049999"
       gradientUnits="userSpaceOnUse"
       spreadMethod="pad"
       id="linearGradient4202"><stop
         style="stop-opacity:1;stop-color:#ffffff"
         offset="0"
         id="stop4204" /><stop
         style="stop-opacity:0;stop-color:#ffffff"
         offset="1"
         id="stop4206" /></linearGradient><mask
       maskUnits="userSpaceOnUse"
       x="0"
       y="0"
       width="1"
       height="1"
       id="mask4208"><g
         id="g4210"><g
           id="g4212"><g
             transform="translate(298.1795,189.2333)"
             id="g4214"><g
               id="g4216"><g
                 clip-path="url(#clipPath4198)"
                 id="g4218"><path
                   d="m 0,0 157.9975,0 0,74.1657 L 0,74.1657 0,0 Z"
                   style="fill:url(#linearGradient4202);fill-rule:evenodd;stroke:none"
                   id="path4220"
                   inkscape:connector-curvature="0" /></g></g></g></g></g></mask></defs><sodipodi:namedview
     pagecolor="#ffffff"
     bordercolor="#666666"
     borderopacity="1"
     objecttolerance="10"
     gridtolerance="10"
     guidetolerance="10"
     inkscape:pageopacity="0"
     inkscape:pageshadow="2"
     inkscape:window-width="1920"
     inkscape:window-height="1017"
     id="namedview4138"
     showgrid="false"
     fit-margin-top="0"
     fit-margin-left="0"
     fit-margin-right="0"
     fit-margin-bottom="0"
     inkscape:zoom="0.81910954"
     inkscape:cx="345.67123"
     inkscape:cy="289.6399"
     inkscape:window-x="-4"
     inkscape:window-y="-4"
     inkscape:window-maximized="1"
     inkscape:current-layer="g4144" /><g
     id="g4144"
     inkscape:groupmode="layer"
     inkscape:label="englishONfinal-split"
     transform="matrix(1.25,0,0,-1.25,-211.03088,815.82188)"><g
       id="g4146"><path
         d="m 673.0645,453.2448 c 0,-91.7274 -72.4365,-168.9902 -171.0711,-192.2516 -19.7901,-4.6672 -40.6344,-7.1603 -62.1599,-7.1603 -21.5254,0 -42.37,2.4931 -62.1601,7.1603 5.6308,-24.9625 31.3206,-43.8165 62.1601,-43.8165 9.0253,0 16.3415,-6.2558 16.3415,-13.9714 0,-7.7165 -7.3162,-13.9723 -16.3415,-13.9723 -0.1431,0 -0.2871,0.002 -0.4291,0.005 -149.474,0.1988 -270.5786,103.8595 -270.5786,231.7074 0,126.2497 118.0951,228.9081 264.9867,231.6467 2.0021,0.0379 4.0084,0.0654 6.021,0.0654 128.8106,0 233.231,-89.28 233.231,-199.4122"
         style="fill:#0d53b5;fill-opacity:1;fill-rule:evenodd;stroke:none"
         id="path4148"
         inkscape:connector-curvature="0" /><path
         d="m 274.9592,237.0574 0,128.0016 -98.1785,0 c -5.1863,17.8991 -7.956,36.6143 -7.956,55.8862 0,19.2693 2.7675,37.9868 7.9515,55.8859 l 98.183,0 0,128.0194 c 32.2931,21.1966 70.3315,36.3126 111.7721,43.3499 l 0,-171.3693 284.7016,0 c 1.0664,-7.7369 1.6319,-15.6034 1.6319,-23.586 0,-31.6607 -8.6355,-61.5977 -23.993,-88.1861 l -262.3405,0 0,-106.0339 c -3.0424,0.6038 -6.0625,1.2609 -9.0581,1.9672 1.5695,-6.9545 4.6967,-13.4373 9.0581,-19.1667 l 0,-48.1269 c -41.4406,7.0441 -79.4767,22.1601 -111.7721,43.3587"
         style="fill:#e62609;fill-opacity:1;fill-rule:nonzero;stroke:none"
         id="path4150"
         inkscape:connector-curvature="0" /><path
         d="m 258.1934,248.9924 0,99.3008 -75.7616,0 c -4.187,10.8442 -7.4551,22.0436 -9.7421,33.5316 l 102.2695,0 16.7658,0 0,-16.7658 0,-138.1728 c -11.8525,6.626 -23.0652,14.0184 -33.5316,22.1062 z m -75.7703,244.6047 75.7703,0 0,99.2872 c 10.4684,8.0901 21.6749,15.4939 33.5316,22.1218 l 0,-138.175 0,-16.7658 -16.7658,0 -102.2717,0 c 2.287,11.4857 5.5508,22.6876 9.7356,33.5318 z m 221.074,156.9683 0,-156.9683 264.7862,0 c 2.6153,-10.8799 4.1803,-22.0864 4.6318,-33.5318 l -286.1838,0 -16.7658,0 0,16.7658 0,168.025 c 10.9224,2.4834 22.1131,4.4016 33.5316,5.7093 z m 234.6814,-302.2722 -234.6814,0 0,-92.0534 c -8.7809,1.1735 -17.3985,2.7652 -25.8239,4.7525 3.1631,-14.0184 12.6504,-26.1076 25.8239,-34.0166 l 0,-35.6621 c -11.4185,1.3077 -22.6092,3.2259 -33.5316,5.7116 l 0,168.0338 0,16.7658 16.7658,0 270.9178,0 c -5.2755,-11.7539 -11.8097,-22.9714 -19.4706,-33.5316"
         style="fill:#ffffff;fill-opacity:1;fill-rule:nonzero;stroke:none"
         id="path4152"
         inkscape:connector-curvature="0" /><g
         id="g4154"><g
           id="g4156" /><g
           id="g4186"
           mask="url(#mask4172)"><path
             d="m 359.0104,263.3984 c 6.499,0 12.7656,-0.8425 18.663,-2.4066 4.4227,-19.6019 21.2134,-35.4345 43.1544,-41.3309 0.7206,-3.2587 1.1024,-6.6208 1.1024,-10.059 0,-6.9123 -1.5267,-13.5198 -4.3044,-19.5896 -43.5373,3.0197 -84.1632,14.8382 -119.4483,33.3711 7.1198,23.034 31.6554,40.015 60.8329,40.015"
             style="fill:#332c2b;fill-opacity:1;fill-rule:evenodd;stroke:none"
             id="path4188"
             inkscape:connector-curvature="0" /></g></g><g
         id="g4190"><g
           id="g4192" /><g
           id="g4222"
           mask="url(#mask4208)"><path
             d="m 359.0116,263.399 c 6.4984,0 12.7658,-0.8428 18.6624,-2.4069 l 0.0159,-0.0638 c 5.6605,-24.9302 31.3339,-43.7511 62.1456,-43.7511 9.0258,0 16.3415,-6.2563 16.3415,-13.9725 0,-7.7162 -7.3157,-13.9714 -16.3415,-13.9714 -0.1426,0 -0.2863,0.002 -0.4289,0.005 -51.2878,0.0678 -99.2332,12.3177 -140.0944,33.5455 l -0.7458,0.3932 -0.3869,0.2066 c 7.1189,23.0329 31.6545,40.0156 60.8321,40.0156"
             style="fill:#332c2b;fill-opacity:1;fill-rule:evenodd;stroke:none"
             id="path4224"
             inkscape:connector-curvature="0" /></g></g></g></g></svg>